<svg width="100" height="22" viewBox="0 0 100 22" fill="none" xmlns="http://www.w3.org/2000/svg">
<path d="M24.1152 5.16113H26.4288V16.0481H24.1152V5.16113Z" fill="white"/>
<path d="M27.725 12.3187C27.725 11.5354 27.963 10.7698 28.409 10.1188C28.8549 9.46786 29.4886 8.9609 30.2297 8.6622C30.9709 8.36349 31.7861 8.28649 32.5721 8.44096C33.3581 8.59542 34.0795 8.9744 34.6448 9.52984C35.2101 10.0853 35.5939 10.7922 35.7475 11.561C35.9011 12.3297 35.8176 13.1258 35.5076 13.8481C35.1976 14.5705 34.6751 15.1867 34.0062 15.6186C33.3374 16.0505 32.5523 16.2787 31.7506 16.2742C31.2188 16.2782 30.6916 16.1785 30.1998 15.9809C29.708 15.7833 29.2615 15.4917 28.8866 15.1233C28.5116 14.7549 28.2157 14.317 28.0163 13.8354C27.8168 13.3538 27.7178 12.8382 27.725 12.3187V12.3187ZM33.5243 12.3187C33.5152 11.981 33.4044 11.6534 33.2058 11.377C33.0071 11.1005 32.7294 10.8874 32.4074 10.7642C32.0855 10.6411 31.7335 10.6135 31.3955 10.6848C31.0575 10.7561 30.7486 10.9232 30.5073 11.1651C30.266 11.407 30.103 11.7131 30.0389 12.0451C29.9747 12.377 30.0121 12.72 30.1464 13.0313C30.2808 13.3426 30.5061 13.6082 30.7941 13.7951C31.0822 13.9819 31.4202 14.0816 31.766 14.0817C32.0014 14.0862 32.2352 14.0432 32.4529 13.9554C32.6705 13.8676 32.8673 13.7369 33.0308 13.5714C33.1944 13.4059 33.3213 13.2093 33.4035 12.9937C33.4858 12.7782 33.5217 12.5484 33.5089 12.3187H33.5243Z" fill="white"/>
<path d="M44.9296 8.58913V15.6789C44.9296 18.1802 42.9245 19.2426 40.8963 19.2426C40.1809 19.2999 39.4633 19.1611 38.8243 18.8416C38.1853 18.5221 37.6503 18.0348 37.2794 17.4343L39.2305 16.3343C39.3887 16.6458 39.6402 16.9027 39.9515 17.071C40.2629 17.2392 40.6194 17.3108 40.9734 17.2761C41.199 17.3033 41.4279 17.2814 41.6438 17.212C41.8596 17.1427 42.0572 17.0276 42.2222 16.875C42.3873 16.7224 42.5158 16.536 42.5985 16.3292C42.6813 16.1225 42.7162 15.9004 42.7009 15.6789V14.9932C42.4317 15.3121 42.0901 15.5654 41.7032 15.7328C41.3163 15.9002 40.8948 15.9772 40.4722 15.9576C39.4495 15.9576 38.4687 15.5607 37.7456 14.8543C37.0225 14.1478 36.6162 13.1896 36.6162 12.1905C36.6162 11.1914 37.0225 10.2332 37.7456 9.52674C38.4687 8.82027 39.4495 8.42338 40.4722 8.42338C40.8948 8.40385 41.3163 8.48084 41.7032 8.64825C42.0901 8.81565 42.4317 9.06886 42.7009 9.38776V8.63434L44.9296 8.58913ZM42.7009 12.1679C42.7163 11.8074 42.6209 11.4507 42.4271 11.1436C42.2333 10.8365 41.95 10.5931 41.6134 10.4446C41.2768 10.2961 40.9025 10.2494 40.5386 10.3104C40.1746 10.3714 39.8376 10.5374 39.571 10.787C39.3044 11.0367 39.1203 11.3585 39.0424 11.7112C38.9645 12.0638 38.9964 12.4312 39.1339 12.766C39.2715 13.1008 39.5084 13.3878 39.8142 13.59C40.12 13.7922 40.4808 13.9005 40.85 13.9008C41.091 13.9177 41.3329 13.8851 41.5602 13.8051C41.7874 13.725 41.995 13.5993 42.1694 13.4359C42.3438 13.2726 42.4813 13.0754 42.5728 12.857C42.6644 12.6386 42.708 12.4038 42.7009 12.1679V12.1679Z" fill="white"/>
<path d="M46.2327 12.3183C46.2327 11.5356 46.4703 10.7706 46.9156 10.1199C47.3608 9.4693 47.9936 8.96232 48.7338 8.66317C49.4741 8.36401 50.2886 8.28612 51.0741 8.43935C51.8597 8.59259 52.5811 8.97006 53.1471 9.524C53.713 10.0779 54.098 10.7834 54.2533 11.5512C54.4087 12.319 54.3274 13.1146 54.0198 13.8372C53.7121 14.5598 53.192 15.1771 52.5252 15.6108C51.8583 16.0445 51.0748 16.2752 50.2737 16.2737C49.741 16.2788 49.2125 16.1799 48.7194 15.9828C48.2263 15.7857 47.7784 15.4944 47.402 15.126C47.0256 14.7576 46.7283 14.3195 46.5275 13.8373C46.3268 13.3552 46.2265 12.8387 46.2327 12.3183ZM52.032 12.3183C52.0229 11.9803 51.9119 11.6524 51.7129 11.3758C51.5139 11.0991 51.2358 10.886 50.9133 10.7631C50.5909 10.6403 50.2385 10.6131 49.9004 10.685C49.5622 10.7569 49.2533 10.9247 49.0123 11.1674C48.7713 11.4101 48.609 11.7169 48.5457 12.0493C48.4824 12.3817 48.5209 12.725 48.6564 13.0361C48.7919 13.3472 49.0184 13.6123 49.3075 13.7983C49.5965 13.9842 49.9353 14.0826 50.2814 14.0813C50.5168 14.0858 50.7507 14.0428 50.9683 13.955C51.1859 13.8671 51.3827 13.7364 51.5463 13.571C51.7098 13.4055 51.8367 13.2088 51.919 12.9933C52.0012 12.7778 52.0371 12.548 52.0243 12.3183H52.032Z" fill="white"/>
<path d="M55.3867 6.59256C55.3867 6.32732 55.4672 6.06803 55.6181 5.84749C55.7689 5.62695 55.9833 5.45505 56.2341 5.35355C56.4849 5.25205 56.761 5.22549 57.0272 5.27723C57.2935 5.32898 57.5381 5.45671 57.7301 5.64426C57.9221 5.83182 58.0528 6.07078 58.1058 6.33093C58.1587 6.59107 58.1316 6.86072 58.0277 7.10578C57.9238 7.35083 57.7478 7.56028 57.5221 7.70764C57.2963 7.855 57.0309 7.93366 56.7594 7.93366C56.3966 7.92974 56.0498 7.78719 55.7932 7.53653C55.5366 7.28587 55.3907 6.94703 55.3867 6.59256V6.59256ZM55.6104 8.58914H57.9239V16.048H55.6104V8.58914Z" fill="white"/>
<path d="M67.8262 12.3186C67.8521 12.8147 67.7774 13.3109 67.6063 13.7786C67.4352 14.2463 67.1711 14.6764 66.8292 15.044C66.4873 15.4116 66.0744 15.7096 65.6142 15.9207C65.1539 16.1318 64.6555 16.2519 64.1476 16.2741C63.7166 16.3021 63.2847 16.2347 62.8841 16.0768C62.4835 15.919 62.1246 15.6748 61.8341 15.3625V19.0467H59.5205V8.58918H61.8341V9.28987C62.125 8.97848 62.4842 8.7354 62.8848 8.57883C63.2855 8.42226 63.7172 8.35626 64.1476 8.38576C64.6535 8.40802 65.1499 8.5274 65.6086 8.73709C66.0672 8.94678 66.4791 9.24268 66.8207 9.60788C67.1623 9.97308 67.4269 10.4004 67.5994 10.8656C67.7719 11.3307 67.849 11.8244 67.8262 12.3186V12.3186ZM65.5126 12.3186C65.5035 11.9687 65.3889 11.6292 65.1831 11.3426C64.9773 11.0561 64.6896 10.8353 64.3559 10.7078C64.0221 10.5804 63.6574 10.552 63.3072 10.6262C62.9571 10.7005 62.6371 10.874 62.3875 11.1251C62.1379 11.3763 61.9697 11.6938 61.9041 12.0379C61.8384 12.382 61.8781 12.7374 62.0183 13.0595C62.1585 13.3817 62.3929 13.6562 62.6921 13.8488C62.9913 14.0413 63.3421 14.1433 63.7003 14.1419C63.9458 14.1521 64.1906 14.1115 64.4188 14.0227C64.647 13.934 64.8535 13.7991 65.0246 13.6269C65.1957 13.4548 65.3277 13.2492 65.4118 13.0238C65.4959 12.7983 65.5303 12.558 65.5126 12.3186V12.3186Z" fill="white"/>
<path d="M74.8669 13.8103C74.8669 15.5281 73.3245 16.2589 71.6896 16.2589C71.0227 16.3175 70.3532 16.1794 69.7676 15.8625C69.1819 15.5455 68.707 15.0642 68.4043 14.4808L70.394 13.3808C70.4728 13.6496 70.6437 13.8839 70.8781 14.0443C71.1126 14.2048 71.3963 14.2818 71.6818 14.2623C72.2294 14.2623 72.507 14.0966 72.507 13.7952C72.507 12.974 68.7513 13.4109 68.7513 10.8267C68.7513 9.1993 70.1549 8.3856 71.7435 8.3856C72.3474 8.35918 72.9473 8.49303 73.4796 8.77293C74.0119 9.05283 74.4566 9.46834 74.7666 9.97532L72.7769 11C72.689 10.8056 72.5454 10.6403 72.3634 10.524C72.1814 10.4076 71.9688 10.3453 71.7513 10.3445C71.3502 10.3445 71.1112 10.4952 71.1112 10.7589C71.1112 11.6178 74.8669 11.0527 74.8669 13.8103Z" fill="white"/>
<path d="M83.2498 8.58887V16.0478H80.9363V15.3471C80.6734 15.6572 80.3397 15.9027 79.9619 16.0637C79.5842 16.2246 79.173 16.2966 78.7615 16.2738C77.2191 16.2738 75.9004 15.1964 75.9004 13.1848V8.58887H78.214V12.8457C78.1958 13.0237 78.2173 13.2034 78.2772 13.3724C78.337 13.5414 78.4337 13.6957 78.5606 13.8247C78.6874 13.9536 78.8414 14.0542 79.0119 14.1193C79.1824 14.1844 79.3654 14.2126 79.5481 14.2019C80.381 14.2019 80.9671 13.7197 80.9671 12.695V8.58887H83.2498Z" fill="white"/>
<path d="M96.3594 11.4671V16.0479H94.0459V11.663C94.0459 10.9096 93.6834 10.4424 92.9508 10.4424C92.2182 10.4424 91.7555 10.9623 91.7555 11.8438V16.0479H89.4419V11.663C89.4419 10.9096 89.0794 10.4424 88.3468 10.4424C87.6142 10.4424 87.1515 10.9623 87.1515 11.8438V16.0479H84.8379V8.58902H87.1515V9.27464C87.391 8.97173 87.7039 8.73185 88.062 8.57664C88.4202 8.42143 88.8122 8.35578 89.2028 8.3856C89.5941 8.36566 89.984 8.44547 90.3341 8.61718C90.6843 8.7889 90.9828 9.04662 91.2002 9.36505C91.4543 9.03237 91.7906 8.76804 92.1777 8.59675C92.5647 8.42547 92.9899 8.35282 93.4135 8.3856C95.2181 8.3856 96.3594 9.60615 96.3594 11.4671Z" fill="white"/>
<path d="M10.3339 3.20206V0H0V22H10.3339V18.7979C8.21702 18.7979 6.18682 17.9764 4.68994 16.514C3.19306 15.0516 2.35213 13.0681 2.35213 11C2.35213 8.93186 3.19306 6.94842 4.68994 5.48602C6.18682 4.02362 8.21702 3.20206 10.3339 3.20206V3.20206Z" fill="white"/>
<path d="M10.334 3.20215V18.798C12.4509 18.798 14.4811 17.9765 15.978 16.5141C17.4748 15.0517 18.3158 13.0682 18.3158 11.0001C18.3158 8.93195 17.4748 6.94851 15.978 5.48611C14.4811 4.02372 12.4509 3.20215 10.334 3.20215V3.20215Z" fill="white"/>
<path d="M98.304 8.54407C99.241 8.54407 100.001 7.80197 100.001 6.88654C100.001 5.97111 99.241 5.229 98.304 5.229C97.367 5.229 96.6074 5.97111 96.6074 6.88654C96.6074 7.80197 97.367 8.54407 98.304 8.54407Z" fill="white"/>
</svg>
