<svg width="97" height="20" viewBox="0 0 97 20" fill="none" xmlns="http://www.w3.org/2000/svg">
<path d="M25 3.69975H27.5599V14.0548H25V3.69975ZM28.5754 10.145C28.5754 7.58397 30.1454 6.0559 32.5688 6.0559C34.9922 6.0559 36.5623 7.58397 36.5623 10.145C36.5623 12.706 35.0263 14.2426 32.5688 14.2426C30.1113 14.2426 28.5754 12.7487 28.5754 10.145ZM33.9938 10.145C33.9938 8.73643 33.4392 7.90837 32.5688 7.90837C31.6985 7.90837 31.1523 8.76204 31.1523 10.145C31.1523 11.5279 31.6899 12.3645 32.5688 12.3645C33.4477 12.3645 33.9938 11.5792 33.9938 10.1535V10.145ZM37.5265 14.5585H39.9841C40.101 14.8184 40.2987 15.0336 40.5478 15.1721C40.7969 15.3105 41.084 15.3648 41.3664 15.3268C42.3392 15.3268 42.8512 14.7975 42.8512 14.0292V12.595H42.8C42.596 13.0346 42.265 13.4029 41.8498 13.6525C41.4346 13.902 40.9541 14.0213 40.4704 13.9951C38.6017 13.9951 37.3644 12.5694 37.3644 10.1194C37.3644 7.66934 38.542 6.12419 40.5046 6.12419C41.0034 6.10462 41.4963 6.23805 41.9172 6.50658C42.3382 6.77511 42.667 7.16592 42.8597 7.62665V6.20102H45.4196V13.9695C45.4196 15.839 43.7727 17 41.3408 17C39.0795 17 37.6716 15.9841 37.5265 14.567V14.5585ZM42.8597 10.1365C42.8597 8.89009 42.288 8.10471 41.3835 8.10471C40.479 8.10471 39.9243 8.88156 39.9243 10.1365C39.9243 11.3914 40.4704 12.0999 41.3835 12.0999C42.2965 12.0999 42.8597 11.4084 42.8597 10.145V10.1365ZM46.3838 10.1365C46.3838 7.57543 47.9539 6.04736 50.3773 6.04736C52.8007 6.04736 54.3793 7.57543 54.3793 10.1365C54.3793 12.6975 52.8434 14.2341 50.3773 14.2341C47.9113 14.2341 46.3838 12.7487 46.3838 10.145V10.1365ZM51.8023 10.1365C51.8023 8.7279 51.2477 7.89983 50.3773 7.89983C49.5069 7.89983 49.0035 8.76204 49.0035 10.1535C49.0035 11.545 49.5411 12.3731 50.4114 12.3731C51.2818 12.3731 51.8023 11.5792 51.8023 10.1535V10.1365ZM55.3521 4.34001C55.3454 4.08144 55.4156 3.82669 55.5537 3.60807C55.6919 3.38945 55.8919 3.2168 56.1283 3.112C56.3646 3.00721 56.6268 2.97498 56.8815 3.01942C57.1362 3.06386 57.372 3.18295 57.559 3.36161C57.7459 3.54026 57.8757 3.77043 57.9317 4.02294C57.9878 4.27545 57.9676 4.53892 57.8738 4.77996C57.78 5.021 57.6168 5.22875 57.4048 5.37687C57.1929 5.525 56.9417 5.60683 56.6832 5.61198C56.5119 5.62376 56.3399 5.59996 56.1782 5.54208C56.0165 5.4842 55.8685 5.39349 55.7435 5.27564C55.6185 5.15779 55.5192 5.01536 55.4518 4.85729C55.3845 4.69921 55.3505 4.52891 55.3521 4.35708V4.34001ZM55.3521 6.21809H57.912V14.0548H55.3521V6.21809ZM67.2045 10.1365C67.2045 12.6975 66.0696 14.1573 64.1241 14.1573C63.6252 14.1893 63.1285 14.0673 62.7012 13.8077C62.2739 13.5482 61.9365 13.1636 61.7348 12.706H61.6836V16.5646H59.1237V6.20102H61.6836V7.60104H61.7348C61.9272 7.13589 62.2581 6.7413 62.6825 6.47095C63.107 6.20059 63.6043 6.06759 64.107 6.09004C66.0696 6.12419 67.2386 7.59251 67.2386 10.1535L67.2045 10.1365ZM64.6446 10.1365C64.6446 8.89009 64.0729 8.09618 63.1769 8.09618C62.2809 8.09618 61.7092 8.89863 61.7007 10.1365C61.6921 11.3743 62.2809 12.1682 63.1769 12.1682C64.0729 12.1682 64.6446 11.3914 64.6446 10.1535V10.1365ZM71.599 6.03882C73.7238 6.03882 75.0123 7.04616 75.072 8.6596H72.7425C72.7425 8.10471 72.2817 7.75471 71.5734 7.75471C70.8652 7.75471 70.5495 8.02788 70.5495 8.42911C70.5495 8.83034 70.8311 8.95839 71.4028 9.0779L73.0411 9.41083C74.6027 9.74377 75.2682 10.3755 75.2682 11.5621C75.2682 13.1841 73.792 14.2256 71.6161 14.2256C69.4402 14.2256 68.0152 13.1841 67.9042 11.5877H70.3703C70.4471 12.1682 70.9079 12.5097 71.6588 12.5097C72.4097 12.5097 72.751 12.2621 72.751 11.8523C72.751 11.4426 72.5121 11.3572 71.8977 11.2292L70.4215 10.9133C68.8941 10.5974 68.0919 9.78645 68.0919 8.59131C68.109 7.05469 69.4828 6.0559 71.599 6.0559V6.03882ZM83.8098 14.0377H81.3438V12.578H81.2926C81.157 13.0681 80.858 13.4971 80.4451 13.7937C80.0322 14.0903 79.5303 14.2366 79.0228 14.2085C78.6339 14.2306 78.2447 14.1689 77.8817 14.0277C77.5186 13.8864 77.1901 13.6688 76.9183 13.3896C76.6465 13.1104 76.4377 12.7761 76.3062 12.4093C76.1746 12.0425 76.1233 11.6517 76.1557 11.2633V6.20102H78.7156V10.6743C78.7156 11.6048 79.1935 12.0999 79.987 12.0999C80.1731 12.1003 80.3571 12.0609 80.5268 11.9843C80.6964 11.9077 80.8477 11.7957 80.9705 11.6559C81.0933 11.516 81.1848 11.3515 81.2389 11.1734C81.293 10.9953 81.3084 10.8076 81.2841 10.6231V6.20102H83.844L83.8098 14.0377ZM85.0471 6.20102H87.5217V7.71202H87.5729C87.7087 7.2284 88.0011 6.80349 88.4041 6.50381C88.8071 6.20413 89.298 6.04661 89.8001 6.0559C90.3108 6.01497 90.8183 6.1679 91.2214 6.48426C91.6246 6.80062 91.894 7.25723 91.976 7.76324H92.0272C92.182 7.25184 92.5025 6.8065 92.9381 6.49739C93.3738 6.18828 93.8999 6.03296 94.4335 6.0559C94.7816 6.0442 95.1283 6.1059 95.4511 6.237C95.7738 6.36811 96.0654 6.56568 96.3068 6.81687C96.5482 7.06806 96.7341 7.36727 96.8524 7.69503C96.9707 8.0228 97.0188 8.3718 96.9934 8.71936V14.0548H94.4335V9.4023C94.4335 8.54862 94.0495 8.15593 93.3327 8.15593C93.1729 8.15458 93.0146 8.18754 92.8686 8.25258C92.7226 8.31763 92.5922 8.41325 92.4862 8.533C92.3803 8.65274 92.3013 8.79383 92.2545 8.94673C92.2076 9.09964 92.1942 9.26081 92.2149 9.41937V14.0548H89.783V9.36815C89.783 8.58277 89.399 8.15593 88.6993 8.15593C88.5376 8.15598 88.3778 8.19032 88.2304 8.25669C88.083 8.32305 87.9513 8.41993 87.8441 8.54094C87.7368 8.66194 87.6565 8.80432 87.6082 8.95869C87.56 9.11305 87.5451 9.27588 87.5644 9.43644V14.0548H85.0045L85.0471 6.20102Z" fill="white"/>
<path d="M19.1743 6.04043C18.7991 5.18233 18.3026 4.38264 17.6999 3.6659C16.8089 2.57475 15.697 1.68472 14.4374 1.05437C13.1778 0.424022 11.799 0.0676584 10.3918 0.00873176C8.98458 -0.0501949 7.58083 0.18965 6.27296 0.712485C4.96508 1.23532 3.78273 2.02929 2.80372 3.04213C1.82471 4.05498 1.07123 5.26373 0.592886 6.58884C0.11454 7.91396 -0.0778334 9.32538 0.0284307 10.7302C0.134695 12.1351 0.537186 13.5015 1.20941 14.7395C1.88164 15.9775 2.80836 17.0591 3.92858 17.9131C4.64737 18.472 5.44162 18.9263 6.28769 19.2626C7.4739 19.7488 8.74344 19.9993 10.0254 20C12.6716 19.9941 15.2075 18.939 17.0772 17.066C18.947 15.1929 19.998 12.6548 20 10.0078C20.0019 8.64247 19.7208 7.29156 19.1743 6.04043V6.04043ZM10.018 2.03618C11.1692 2.03605 12.3065 2.28774 13.3503 2.77361V2.77361C13.0957 2.88361 12.8282 2.96044 12.5541 3.00221C11.6521 3.13281 10.8166 3.55166 10.1722 4.19624C9.52783 4.84082 9.1091 5.67658 8.97854 6.57875C8.92123 7.08472 8.69118 7.55543 8.32722 7.91143C7.96325 8.26744 7.48765 8.48696 6.98067 8.53295C6.07875 8.66354 5.24324 9.08239 4.59884 9.72697C3.95444 10.3716 3.53571 11.2073 3.40515 12.1095C3.36095 12.5906 3.15575 13.0427 2.82275 13.3926V13.3926C2.2482 12.1783 1.9901 10.8383 2.07246 9.4973C2.15482 8.15634 2.57497 6.85802 3.29381 5.72315C4.01265 4.58828 5.00682 3.65375 6.18379 3.00653C7.36076 2.3593 8.68229 2.02043 10.0254 2.02143L10.018 2.03618ZM3.92121 15.1698C4.00968 15.0887 4.09814 15.015 4.18661 14.9265C4.84248 14.2904 5.26348 13.4508 5.38091 12.5446C5.42852 12.0352 5.65589 11.5594 6.02229 11.2024C6.37486 10.8353 6.84943 10.6098 7.35666 10.5683C8.25858 10.4377 9.09409 10.0188 9.73849 9.37423C10.3829 8.72964 10.8016 7.89389 10.9322 6.99172C10.9641 6.45893 11.1926 5.95698 11.5736 5.58322C11.9348 5.22325 12.4139 5.00589 12.9227 4.97115C13.7512 4.85712 14.524 4.48867 15.1343 3.91663C15.8293 4.49335 16.4181 5.18715 16.8742 5.96669C16.8462 6.00455 16.814 6.03918 16.7783 6.06993C16.4264 6.44026 15.9525 6.67076 15.444 6.71887C14.5411 6.84718 13.7044 7.26529 13.0595 7.91029C12.4147 8.55529 11.9967 9.39231 11.8684 10.2954C11.8165 10.8031 11.5907 11.2772 11.2293 11.6373C10.8678 11.9975 10.393 12.2216 9.88532 12.2717C8.98077 12.4013 8.14214 12.8193 7.49401 13.4637C6.84588 14.108 6.42282 14.9443 6.28769 15.8483C6.24801 16.2087 6.12428 16.5547 5.92645 16.8585C5.17006 16.4093 4.49262 15.8388 3.92121 15.1698V15.1698ZM10.018 18.0163C9.26995 18.0171 8.52546 17.9129 7.80636 17.7066C8.05234 17.2479 8.21226 16.748 8.27818 16.2317C8.32985 15.7252 8.55461 15.252 8.91454 14.892C9.27447 14.5319 9.74754 14.3071 10.2539 14.2554C11.1572 14.1263 11.9944 13.7081 12.6402 13.0634C13.2861 12.4187 13.7059 11.5821 13.8368 10.6789C13.8885 10.1723 14.1133 9.69913 14.4732 9.3391C14.8331 8.97906 15.3062 8.75424 15.8126 8.70256C16.4923 8.61411 17.1402 8.36097 17.6999 7.96512C18.0106 9.14347 18.0475 10.3774 17.8075 11.5722C17.5675 12.7669 17.0571 13.8909 16.3155 14.8577C15.5738 15.8246 14.6206 16.6086 13.529 17.1498C12.4374 17.6909 11.2363 17.9747 10.018 17.9794V18.0163Z" fill="white"/>
</svg>
