<svg width="100" height="20" viewBox="0 0 100 20" fill="none" xmlns="http://www.w3.org/2000/svg">
<path d="M15.001 8.77748C14.7216 9.06345 14.5077 9.40858 14.3744 9.78829C14.2411 10.168 14.1918 10.5729 14.2299 10.9743L14.2166 10.9608C14.2558 11.4332 14.1932 11.9086 14.0332 12.3538C13.8731 12.799 13.6195 13.2034 13.29 13.5386C12.9605 13.8738 12.563 14.1319 12.1254 14.2947C11.6878 14.4575 11.2205 14.5212 10.7561 14.4813L10.7694 14.4948C10.214 14.4422 9.65611 14.5652 9.17189 14.847C8.68766 15.1287 8.30065 15.5556 8.06361 16.0693C7.82657 16.5831 7.75105 17.1587 7.84734 17.7177C7.94364 18.2767 8.20705 18.7919 8.60168 19.193C8.99631 19.5941 9.50294 19.8616 10.0525 19.9591C10.602 20.0565 11.1677 19.9792 11.6725 19.7376C12.1773 19.4959 12.5965 19.1018 12.873 18.6089C13.1495 18.1161 13.2699 17.5484 13.2177 16.9834L13.2317 16.9969C13.1925 16.5245 13.2551 16.0491 13.4152 15.6038C13.5752 15.1586 13.8288 14.7542 14.1583 14.419C14.4878 14.0838 14.8853 13.8258 15.3229 13.663C15.7605 13.5001 16.2278 13.4364 16.6922 13.4763L16.6782 13.4628C17.1319 13.5043 17.5886 13.4286 18.0059 13.2428C18.4232 13.0569 18.7876 12.7669 19.0654 12.3996C19.3432 12.0323 19.5254 11.5996 19.5951 11.1416C19.6647 10.6836 19.6196 10.2151 19.4639 9.77953C19.3082 9.34398 19.0469 8.95547 18.7044 8.65C18.3618 8.34452 17.9489 8.13197 17.5041 8.03205C17.0593 7.93212 16.5968 7.94805 16.1597 8.07835C15.7225 8.20866 15.3247 8.44913 15.0032 8.77748H15.001Z" fill="white"/>
<path d="M9.56329 12.7262L9.54928 12.7127C9.94393 12.7531 10.3425 12.7038 10.7161 12.5684C11.0898 12.4329 11.4291 12.2147 11.7097 11.9295C11.9903 11.6442 12.2051 11.2991 12.3385 10.9191C12.4719 10.5391 12.5206 10.1336 12.4812 9.73211L12.4952 9.74561C12.456 9.27321 12.5186 8.79781 12.6786 8.35257C12.8387 7.90733 13.0923 7.50299 13.4218 7.16777C13.7513 6.83255 14.1488 6.57452 14.5864 6.4117C15.024 6.24887 15.4913 6.18517 15.9557 6.22505L15.9417 6.21155C16.4971 6.26462 17.0552 6.14207 17.5397 5.86062C18.0242 5.57917 18.4115 5.15252 18.6489 4.63886C18.8863 4.1252 18.9622 3.54954 18.8662 2.9904C18.7702 2.43126 18.507 1.91586 18.1125 1.5145C17.718 1.11315 17.2114 0.845368 16.6618 0.747695C16.1122 0.650021 15.5463 0.727206 15.0414 0.968724C14.5365 1.21024 14.1172 1.60433 13.8405 2.09724C13.5639 2.59016 13.4434 3.15789 13.4956 3.72301L13.4823 3.70876C13.5216 4.18119 13.4591 4.65665 13.2991 5.10195C13.1391 5.54725 12.8855 5.95165 12.556 6.2869C12.2264 6.62215 11.8289 6.88017 11.3912 7.04295C10.9536 7.20573 10.4862 7.26933 10.0218 7.22932L10.0351 7.24357C9.64045 7.20311 9.2419 7.25239 8.86826 7.38784C8.49462 7.52329 8.15524 7.74152 7.87466 8.02676C7.59408 8.312 7.37932 8.6571 7.2459 9.03712C7.11248 9.41715 7.06374 9.82259 7.10321 10.2241L7.08994 10.2106C7.129 10.683 7.06631 11.1583 6.90622 11.6035C6.74613 12.0487 6.4925 12.453 6.16302 12.7882C5.83355 13.1234 5.43616 13.3814 4.99858 13.5443C4.561 13.7071 4.09376 13.7709 3.62946 13.7312L3.64273 13.7447C3.08725 13.6916 2.52921 13.8142 2.0447 14.0956C1.5602 14.3771 1.17284 14.8037 0.935442 15.3174C0.698046 15.831 0.622177 16.4067 0.718184 16.9658C0.81419 17.525 1.0774 18.0404 1.47191 18.4417C1.86642 18.8431 2.37302 19.1109 2.92262 19.2085C3.47222 19.3062 4.03805 19.229 4.54295 18.9875C5.04784 18.746 5.46721 18.3519 5.74386 17.859C6.02051 17.3661 6.14097 16.7983 6.0888 16.2332L6.10281 16.2467C6.06361 15.7743 6.12622 15.2989 6.28627 14.8537C6.44631 14.4084 6.69994 14.0041 7.02944 13.6689C7.35894 13.3337 7.75638 13.0756 8.19402 12.9128C8.63166 12.75 9.09895 12.6863 9.56329 12.7262V12.7262Z" fill="white"/>
<path d="M4.62225 11.2209C4.90167 10.935 5.1156 10.5899 5.24877 10.2101C5.38194 9.83038 5.43107 9.42542 5.39264 9.02413L5.40665 9.03763C5.36742 8.5651 5.43006 8.08955 5.59019 7.6442C5.75032 7.19884 6.00408 6.79442 6.33375 6.45917C6.66342 6.12392 7.06105 5.86593 7.49887 5.70321C7.93669 5.54049 8.40415 5.47696 8.8686 5.51707L8.8546 5.50357C9.40988 5.5565 9.9677 5.43388 10.452 5.15245C10.9362 4.87101 11.3234 4.44446 11.5607 3.93096C11.7979 3.41747 11.8737 2.84201 11.7777 2.28308C11.6817 1.72415 11.4186 1.20895 11.0242 0.807742C10.6299 0.40653 10.1234 0.138836 9.57405 0.0411669C9.02466 -0.0565026 8.45903 0.0206068 7.95429 0.261979C7.44955 0.503351 7.03028 0.897234 6.75365 1.38992C6.47702 1.8826 6.3565 2.4501 6.40852 3.01503L6.39525 3.00153C6.43445 3.47392 6.37184 3.94933 6.21179 4.39457C6.05175 4.83981 5.79813 5.24415 5.46862 5.57937C5.13912 5.9146 4.74168 6.17262 4.30404 6.33545C3.8664 6.49827 3.39911 6.56196 2.93477 6.52209L2.94804 6.53559C2.49434 6.4942 2.03771 6.56998 1.62046 6.75593C1.20321 6.94187 0.838843 7.23195 0.561127 7.5993C0.283411 7.96664 0.101328 8.39936 0.0317537 8.85735C-0.0378211 9.31535 0.007362 9.7838 0.163117 10.2193C0.318871 10.6548 0.580158 11.0433 0.922763 11.3487C1.26537 11.6541 1.67821 11.8666 2.12303 11.9665C2.56784 12.0664 3.03025 12.0504 3.46739 11.9201C3.90453 11.7897 4.30226 11.5493 4.62373 11.2209H4.62225Z" fill="white"/>
<path d="M27.459 3.74023H29.6485V14.5802H27.459V3.74023Z" fill="white"/>
<path d="M30.8888 10.8685C30.8857 10.0896 31.11 9.32716 31.5331 8.67793C31.9563 8.0287 32.5594 7.52185 33.2659 7.22158C33.9724 6.92131 34.7507 6.84113 35.502 6.99119C36.2534 7.14125 36.9441 7.5148 37.4866 8.06454C38.0291 8.61427 38.3991 9.31544 38.5496 10.0792C38.7001 10.843 38.6244 11.6351 38.3321 12.3551C38.0398 13.0751 37.544 13.6907 36.9076 14.1238C36.2711 14.5569 35.5226 14.7881 34.7569 14.7881C34.2487 14.794 33.7443 14.6968 33.2734 14.5021C32.8025 14.3074 32.3745 14.0191 32.0143 13.6542C31.6542 13.2893 31.3691 12.855 31.1759 12.3767C30.9826 11.8984 30.885 11.3857 30.8888 10.8685V10.8685ZM36.4356 10.8685C36.4264 10.5328 36.3202 10.2072 36.1302 9.93248C35.9402 9.65778 35.6748 9.44617 35.3672 9.32409C35.0596 9.20202 34.7234 9.17489 34.4008 9.24612C34.0781 9.31734 33.7832 9.48375 33.553 9.72454C33.3228 9.96533 33.1675 10.2698 33.1064 10.5999C33.0454 10.9301 33.0813 11.2712 33.2098 11.5806C33.3383 11.89 33.5536 12.1541 33.8287 12.3397C34.1039 12.5253 34.4268 12.6243 34.7569 12.6243C34.9831 12.6305 35.208 12.5889 35.4175 12.5022C35.627 12.4155 35.8166 12.2856 35.9744 12.1206C36.1321 11.9556 36.2545 11.7592 36.3339 11.5437C36.4132 11.3282 36.4479 11.0983 36.4356 10.8685V10.8685Z" fill="white"/>
<path d="M47.3507 7.15564V14.2058C47.3507 16.7003 45.4383 17.7548 43.4973 17.7548C42.8138 17.8069 42.1295 17.6664 41.5193 17.3489C40.9092 17.0314 40.3967 16.549 40.0382 15.9548L41.9064 14.856C42.057 15.1658 42.2971 15.4213 42.5945 15.5885C42.8918 15.7556 43.2323 15.8264 43.5702 15.7913C43.7862 15.8217 44.0062 15.8024 44.2139 15.7347C44.4215 15.6669 44.6116 15.5526 44.7699 15.4001C44.9283 15.2475 45.0509 15.0607 45.1287 14.8535C45.2065 14.6462 45.2375 14.4238 45.2194 14.2028V13.524C44.963 13.8432 44.6367 14.0967 44.2665 14.2644C43.8964 14.432 43.4928 14.509 43.0881 14.4893C42.1252 14.4584 41.2118 14.0475 40.5414 13.3436C39.871 12.6397 39.4961 11.698 39.4961 10.7178C39.4961 9.73768 39.871 8.79599 40.5414 8.09208C41.2118 7.38817 42.1252 6.97729 43.0881 6.94639C43.4928 6.92663 43.8964 7.00366 44.2665 7.1713C44.6367 7.33893 44.963 7.5925 45.2194 7.91166V7.15414L47.3507 7.15564ZM45.2201 10.719C45.2348 10.36 45.1436 10.0047 44.9582 9.69891C44.7728 9.39311 44.5017 9.15077 44.1797 9.00306C43.8578 8.85535 43.4997 8.80905 43.1517 8.8701C42.8037 8.93116 42.4816 9.09678 42.2268 9.34565C41.9721 9.59452 41.7964 9.91526 41.7224 10.2666C41.6483 10.6179 41.6793 10.9837 41.8114 11.317C41.9434 11.6502 42.1705 11.9356 42.4633 12.1365C42.7561 12.3373 43.1013 12.4444 43.4545 12.444C43.6845 12.4603 43.9154 12.4275 44.1322 12.3475C44.349 12.2675 44.547 12.1423 44.7133 11.9798C44.8796 11.8173 45.0107 11.6211 45.098 11.404C45.1852 11.1868 45.2269 10.9535 45.2201 10.719V10.719Z" fill="white"/>
<path d="M48.5909 10.8685C48.5879 10.0896 48.8121 9.32716 49.2353 8.67793C49.6585 8.0287 50.2615 7.52185 50.968 7.22158C51.6746 6.92131 52.4528 6.84113 53.2042 6.99119C53.9556 7.14125 54.6462 7.5148 55.1888 8.06454C55.7313 8.61427 56.1012 9.31544 56.2517 10.0792C56.4023 10.843 56.3266 11.6351 56.0343 12.3551C55.7419 13.0751 55.2462 13.6907 54.6097 14.1238C53.9733 14.5569 53.2248 14.7881 52.4591 14.7881C51.9508 14.794 51.4465 14.6968 50.9756 14.5021C50.5047 14.3074 50.0766 14.0191 49.7165 13.6542C49.3563 13.2893 49.0713 12.855 48.878 12.3767C48.6848 11.8984 48.5872 11.3857 48.5909 10.8685V10.8685ZM54.1377 10.8685C54.1286 10.5328 54.0224 10.2072 53.8323 9.93248C53.6423 9.65778 53.3769 9.44617 53.0693 9.32409C52.7617 9.20202 52.4256 9.17489 52.1029 9.24612C51.7802 9.31734 51.4854 9.48375 51.2552 9.72454C51.0249 9.96533 50.8696 10.2698 50.8086 10.5999C50.7475 10.9301 50.7835 11.2712 50.912 11.5806C51.0404 11.89 51.2557 12.1541 51.5309 12.3397C51.8061 12.5253 52.1289 12.6243 52.4591 12.6243C52.6852 12.6305 52.9101 12.5889 53.1197 12.5022C53.3292 12.4155 53.5188 12.2856 53.6765 12.1206C53.8342 11.9556 53.9566 11.7592 54.036 11.5437C54.1154 11.3282 54.15 11.0983 54.1377 10.8685Z" fill="white"/>
<path d="M57.3486 5.16611C57.3486 4.90177 57.4257 4.64337 57.57 4.42358C57.7144 4.20379 57.9196 4.03249 58.1596 3.93133C58.3997 3.83017 58.6638 3.8037 58.9186 3.85527C59.1735 3.90684 59.4076 4.03413 59.5913 4.22105C59.775 4.40797 59.9001 4.64611 59.9508 4.90537C60.0015 5.16463 59.9755 5.43336 59.8761 5.67758C59.7766 5.9218 59.6082 6.13053 59.3922 6.27739C59.1762 6.42425 58.9222 6.50264 58.6623 6.50264C58.315 6.49912 57.9829 6.35718 57.7372 6.10729C57.4916 5.8574 57.3521 5.51949 57.3486 5.16611V5.16611ZM57.5698 7.1559H59.7601V14.581H57.5668L57.5698 7.1559Z" fill="white"/>
<path d="M69.2134 10.8683C69.2387 11.359 69.1684 11.85 69.0065 12.313C68.8447 12.776 68.5945 13.2018 68.2703 13.5661C67.9461 13.9303 67.5543 14.2258 67.1175 14.4355C66.6806 14.6452 66.2074 14.7649 65.7249 14.7879C65.3191 14.8104 64.9136 14.7408 64.5375 14.5841C64.1615 14.4274 63.8245 14.1875 63.5509 13.8819V17.5502H61.3613V7.15574H63.5509V7.85325C63.8246 7.54783 64.1617 7.30816 64.5377 7.15159C64.9137 6.99502 65.3192 6.92547 65.7249 6.94799C66.2075 6.97084 66.6808 7.09055 67.1178 7.30025C67.5547 7.50994 67.9465 7.80547 68.2708 8.16983C68.595 8.53419 68.8452 8.96018 69.007 9.42329C69.1687 9.88641 69.2389 10.3775 69.2134 10.8683V10.8683ZM67.0239 10.8683C67.0153 10.5208 66.9062 10.1836 66.7102 9.89887C66.5142 9.61414 66.24 9.39456 65.9219 9.2676C65.6038 9.14064 65.256 9.11194 64.922 9.1851C64.588 9.25826 64.2826 9.43002 64.044 9.67889C63.8055 9.92776 63.6444 10.2427 63.5809 10.5842C63.5174 10.9258 63.5544 11.2788 63.6871 11.5991C63.8199 11.9194 64.0425 12.1928 64.3272 12.3849C64.612 12.5771 64.946 12.6796 65.2877 12.6796C65.5223 12.6902 65.7564 12.6503 65.9748 12.5624C66.1931 12.4745 66.3907 12.3407 66.5546 12.1696C66.7186 11.9986 66.8451 11.7943 66.926 11.57C67.0068 11.3457 67.0402 11.1066 67.0239 10.8683V10.8683Z" fill="white"/>
<path d="M75.9703 12.3525C75.9703 14.0603 74.5114 14.7878 72.9352 14.7878C72.2984 14.8465 71.6589 14.7095 71.0994 14.3944C70.5399 14.0794 70.0862 13.6009 69.7969 13.0208L71.6937 11.922C71.7705 12.1902 71.9353 12.4234 72.1607 12.5829C72.3861 12.7423 72.6584 12.8182 72.9322 12.798C73.4571 12.798 73.7203 12.6345 73.7203 12.3383C73.7203 11.5207 70.1294 11.952 70.1294 9.38321C70.1294 7.76393 71.4726 6.94791 72.9905 6.94791C73.5611 6.92954 74.1261 7.06724 74.6266 7.34664C75.1272 7.62604 75.5448 8.03692 75.8361 8.53644L73.968 9.56096C73.8861 9.36647 73.7497 9.20081 73.5759 9.08464C73.4021 8.96848 73.1985 8.90694 72.9905 8.9077C72.6108 8.9077 72.3771 9.0577 72.3771 9.3232C72.3801 10.17 75.9703 9.60521 75.9703 12.3525Z" fill="white"/>
<path d="M83.9684 7.15576V14.5809H81.7788V13.8826C81.5263 14.1907 81.2055 14.4335 80.8428 14.591C80.4802 14.7485 80.0859 14.8162 79.6925 14.7886C78.2181 14.7886 76.9648 13.7199 76.9648 11.7136V7.15576H79.1544V11.3873C79.1361 11.5642 79.1558 11.743 79.2123 11.9112C79.2688 12.0795 79.3607 12.2332 79.4815 12.3617C79.6023 12.4902 79.7492 12.5904 79.912 12.6553C80.0747 12.7201 80.2494 12.7481 80.4239 12.7374C81.2267 12.7374 81.7811 12.2626 81.7811 11.2081V7.15801L83.9684 7.15576Z" fill="white"/>
<path d="M96.5231 10.0216V14.5802H94.3335V10.2144C94.3335 9.47186 93.9834 8.99711 93.283 8.99711C92.5532 8.99711 92.144 9.51687 92.144 10.3929V14.5802H89.9552V10.2144C89.9552 9.47186 89.605 8.99711 88.9039 8.99711C88.1741 8.99711 87.7657 9.51687 87.7657 10.3929V14.5802H85.5762V7.15507H87.7657V7.83759C87.9927 7.53479 88.2906 7.29468 88.6322 7.13916C88.9739 6.98365 89.3484 6.91769 89.7215 6.94732C90.0962 6.92868 90.4692 7.00911 90.8042 7.18077C91.1392 7.35243 91.4248 7.60947 91.6331 7.92684C91.8757 7.59483 92.1971 7.33083 92.5673 7.15953C92.9374 6.98822 93.3442 6.91521 93.7497 6.94732C95.4253 6.94807 96.5231 8.16534 96.5231 10.0216Z" fill="white"/>
<path d="M98.3748 7.11025C99.2722 7.11025 99.9996 6.37017 99.9996 5.45723C99.9996 4.54428 99.2722 3.8042 98.3748 3.8042C97.4775 3.8042 96.75 4.54428 96.75 5.45723C96.75 6.37017 97.4775 7.11025 98.3748 7.11025Z" fill="white"/>
</svg>
