<svg width="35" height="35" viewBox="0 0 35 35" fill="none" xmlns="http://www.w3.org/2000/svg">
<g clip-path="url(#clip0_601_335)">
<path d="M26.6663 11.002C26.4374 10.7796 26.1162 10.6785 25.802 10.7302C25.4871 10.7817 25.2152 10.9794 25.0692 11.263C24.5669 12.2388 23.9288 13.1356 23.1782 13.9284C23.253 13.3557 23.2907 12.7796 23.2907 12.202C23.2907 11.0937 23.1421 9.95311 22.849 8.81161C21.8853 5.06228 19.3583 1.89152 15.9161 0.112398C15.6164 -0.0424449 15.2593 -0.0370083 14.9645 0.126896C14.6696 0.290868 14.4765 0.591493 14.4501 0.927759C14.1818 4.33498 12.4267 7.4348 9.63237 9.43441C9.59538 9.46106 9.55867 9.48804 9.52196 9.51489C9.44591 9.57053 9.37423 9.62315 9.30724 9.66731C9.29677 9.67429 9.28637 9.68141 9.27617 9.68872C7.51872 10.947 6.06862 12.6243 5.08244 14.5398C4.08036 16.4882 3.57227 18.579 3.57227 20.754C3.57227 21.862 3.7208 23.0026 4.01377 24.1443C5.55986 30.1619 10.9753 34.3648 17.1831 34.3648C24.6877 34.3648 30.7932 28.259 30.7932 20.754C30.7932 17.0531 29.3275 13.5897 26.6663 11.002V11.002Z" fill="#2DDB81"/>
<circle cx="16.1718" cy="20.2148" r="4.04293" fill="black"/>
</g>
<defs>
<clipPath id="clip0_601_335">
<rect width="34.3649" height="34.3649" fill="white"/>
</clipPath>
</defs>
</svg>
