<svg width="26" height="26" viewBox="0 0 26 26" fill="none" xmlns="http://www.w3.org/2000/svg">
<path d="M7.29941 15.3063C7.91469 15.3063 8.50477 15.0639 8.93983 14.6324C9.3749 14.2009 9.61932 13.6156 9.61932 13.0053C9.61932 12.395 9.3749 11.8097 8.93983 11.3782C8.50477 10.9467 7.91469 10.7043 7.29941 10.7043C6.68413 10.7043 6.09405 10.9467 5.65898 11.3782C5.22391 11.8097 4.97949 12.395 4.97949 13.0053C4.97949 13.6156 5.22391 14.2009 5.65898 14.6324C6.09405 15.0639 6.68413 15.3063 7.29941 15.3063V15.3063ZM18.899 15.3063C19.5143 15.3063 20.1043 15.0639 20.5394 14.6324C20.9745 14.2009 21.2189 13.6156 21.2189 13.0053C21.2189 12.395 20.9745 11.8097 20.5394 11.3782C20.1043 10.9467 19.5143 10.7043 18.899 10.7043C18.2837 10.7043 17.6936 10.9467 17.2586 11.3782C16.8235 11.8097 16.5791 12.395 16.5791 13.0053C16.5791 13.6156 16.8235 14.2009 17.2586 14.6324C17.6936 15.0639 18.2837 15.3063 18.899 15.3063V15.3063ZM13.0992 9.55374C13.7145 9.55374 14.3046 9.31131 14.7396 8.87978C15.1747 8.44825 15.4191 7.86297 15.4191 7.2527C15.4191 6.64243 15.1747 6.05715 14.7396 5.62562C14.3046 5.19409 13.7145 4.95166 13.0992 4.95166C12.4839 4.95166 11.8938 5.19409 11.4588 5.62562C11.0237 6.05715 10.7793 6.64243 10.7793 7.2527C10.7793 7.86297 11.0237 8.44825 11.4588 8.87978C11.8938 9.31131 12.4839 9.55374 13.0992 9.55374ZM13.0992 21.0589C13.7145 21.0589 14.3046 20.8165 14.7396 20.385C15.1747 19.9535 15.4191 19.3682 15.4191 18.7579C15.4191 18.1476 15.1747 17.5623 14.7396 17.1308C14.3046 16.6993 13.7145 16.4569 13.0992 16.4569C12.4839 16.4569 11.8938 16.6993 11.4588 17.1308C11.0237 17.5623 10.7793 18.1476 10.7793 18.7579C10.7793 19.3682 11.0237 19.9535 11.4588 20.385C11.8938 20.8165 12.4839 21.0589 13.0992 21.0589Z" stroke="#28A263" stroke-width="1.08263" stroke-linecap="round" stroke-linejoin="round"/>
<path d="M1.5 13.0052V24.5104M1.5 13.0052C1.5 19.3595 6.69313 24.5104 13.0996 24.5104C19.506 24.5104 24.6992 19.3595 24.6992 13.0052C24.6992 6.65088 19.506 1.5 13.0996 1.5C6.69313 1.5 1.5 6.65088 1.5 13.0052Z" stroke="#28A263" stroke-width="1.08263" stroke-linecap="round" stroke-linejoin="round"/>
</svg>
