<svg width="27" height="27" viewBox="0 0 27 27" fill="none" xmlns="http://www.w3.org/2000/svg">
<path fill-rule="evenodd" clip-rule="evenodd" d="M15.778 3.15761C16.1927 2.8591 16.7776 2.71951 17.3529 2.92998C18.5865 3.3813 19.718 4.04207 20.7047 4.86855C21.1736 5.26131 21.3451 5.83681 21.2942 6.34483C21.2095 7.19119 21.3587 8.00835 21.7654 8.71271C22.127 9.33908 22.6677 9.83386 23.3283 10.1817L23.5815 10.3052C24.0478 10.5154 24.4614 10.9529 24.5662 11.557C24.6752 12.1859 24.732 12.832 24.732 13.4904C24.732 14.1489 24.6752 14.7951 24.5662 15.424C24.4719 15.9677 24.1275 16.3764 23.7196 16.6059L23.5815 16.6757C22.8057 17.0255 22.1722 17.5636 21.7654 18.2683C21.3587 18.9726 21.2095 19.7897 21.2942 20.636C21.345 21.144 21.1736 21.7195 20.7047 22.1123C19.718 22.9387 18.5865 23.5995 17.353 24.0507C16.7778 24.2613 16.1928 24.1217 15.7781 23.8231C15.0871 23.3257 14.3041 23.046 13.49 23.046C12.676 23.046 11.893 23.3257 11.202 23.8231C10.7873 24.1217 10.2023 24.2613 9.62704 24.0507C8.39353 23.5995 7.262 22.9387 6.27526 22.1121C5.80639 21.7195 5.63491 21.144 5.68578 20.636C5.77052 19.7897 5.62115 18.9726 5.21451 18.2683C4.85288 17.6419 4.31225 17.1471 3.6517 16.7993L3.3985 16.6757C2.93223 16.4655 2.5187 16.0281 2.41389 15.424C2.30479 14.7951 2.24805 14.1489 2.24805 13.4904C2.24805 12.8319 2.30479 12.1858 2.41388 11.5568C2.50821 11.0131 2.8526 10.6044 3.26044 10.3749L3.39848 10.3051C4.17429 9.95534 4.80768 9.41723 5.21451 8.71256C5.62116 8.00824 5.77053 7.19112 5.68578 6.34482C5.6349 5.83682 5.80638 5.26136 6.27526 4.86862C7.26202 4.0421 8.39359 3.38131 9.62714 2.92998C10.2024 2.71949 10.7873 2.8591 11.202 3.15761C11.893 3.65497 12.676 3.93467 13.49 3.93467C14.3041 3.93467 15.0871 3.65497 15.778 3.15761ZM16.8533 5.14644C15.8802 5.78636 14.7326 6.18307 13.49 6.18307C12.2475 6.18307 11.0999 5.78636 10.1268 5.14644C9.33867 5.46445 8.60541 5.89122 7.94571 6.40851C8.01286 7.5703 7.78247 8.76156 7.16168 9.83676C6.54074 10.9123 5.62396 11.7076 4.58388 12.2303C4.52629 12.6416 4.49644 13.0622 4.49644 13.4904C4.49644 13.9186 4.52629 14.3392 4.58388 14.7506C5.62396 15.2733 6.54074 16.0686 7.16168 17.1441C7.78245 18.2193 8.01286 19.4105 7.94571 20.5722C8.60539 21.0896 9.33861 21.5163 10.1267 21.8344C11.0998 21.1944 12.2475 20.7976 13.49 20.7976C14.7326 20.7976 15.8803 21.1944 16.8534 21.8344C17.6414 21.5163 18.3746 21.0896 19.0342 20.5723C18.9671 19.4106 19.1975 18.2193 19.8183 17.1441C20.4393 16.0685 21.3561 15.2732 22.3962 14.7504C22.4538 14.3392 22.4836 13.9186 22.4836 13.4904C22.4836 13.0622 22.4538 12.6417 22.3962 12.2306C21.3561 11.7078 20.4393 10.9125 19.8183 9.83691C19.1975 8.76162 18.967 7.5703 19.0342 6.40844C18.3746 5.89119 17.6414 5.46444 16.8533 5.14644ZM13.49 8.99354C15.9735 8.99354 17.9868 11.0068 17.9868 13.4903C17.9868 15.9738 15.9735 17.9871 13.49 17.9871C11.0065 17.9871 8.99324 15.9738 8.99324 13.4903C8.99324 11.0068 11.0065 8.99354 13.49 8.99354ZM13.49 11.2419C12.2482 11.2419 11.2416 12.2485 11.2416 13.4903C11.2416 14.7321 12.2482 15.7387 13.49 15.7387C14.7318 15.7387 15.7384 14.7321 15.7384 13.4903C15.7384 12.2485 14.7318 11.2419 13.49 11.2419Z" fill="#C0F497"/>
</svg>
