<svg width="200" height="160" viewBox="0 0 200 160" fill="none" xmlns="http://www.w3.org/2000/svg">
<rect width="200" height="139" rx="4.84423" fill="#1B1B1B"/>
<path d="M89.4372 36.1593C89.1849 34.7877 90.1022 33.4681 91.4851 33.2829C100.386 32.0913 109.454 32.6871 118.12 35.0433C126.758 37.3919 134.791 41.4341 141.725 46.9081C142.835 47.7848 142.929 49.4174 141.971 50.4615L131.16 62.2488C130.247 63.2442 128.714 63.3314 127.643 62.5122C123.106 59.0438 117.897 56.4722 112.313 54.9538C106.735 53.4372 100.91 53.0056 95.1721 53.675C93.8107 53.8338 92.5256 52.945 92.2777 51.5975L89.4372 36.1593Z" fill="#C0F497"/>
<path d="M145.38 53.3623C146.363 52.4357 147.905 52.45 148.827 53.4345C154.017 58.9787 158.151 65.3763 161.027 72.3313C163.888 79.2478 165.456 86.5938 165.665 94.0278C165.703 95.4099 164.563 96.5182 163.18 96.5022L146.787 96.3132C145.405 96.2972 144.306 95.1625 144.24 93.7816C144.013 89.0649 142.972 84.4124 141.154 80.0178C139.342 75.6371 136.789 71.5855 133.604 68.0264C132.66 66.9719 132.675 65.3444 133.706 64.372L145.38 53.3623Z" fill="#36463D"/>
<path d="M54.2528 54.8539C53.1941 53.9152 53.122 52.2812 54.1383 51.2939C61.615 44.0305 70.8097 38.6334 80.9266 35.5711C82.2337 35.1755 83.5895 35.9544 83.9588 37.2681L88.2141 52.4057C88.5929 53.7532 87.7895 55.1444 86.457 55.5768C80.2121 57.6038 74.5175 60.9638 69.7974 65.4072C68.814 66.3329 67.2811 66.4061 66.272 65.5113L54.2528 54.8539Z" fill="#28A263"/>
<path d="M37.6324 95.054C36.2498 95.0381 35.1381 93.9037 35.2127 92.523C35.8856 80.0695 40.3632 68.0827 48.0796 58.0819C48.9051 57.0121 50.4413 56.8498 51.5059 57.6791L64.2133 67.5797C65.3289 68.4489 65.4951 70.0664 64.6555 71.2068C59.9873 77.5481 57.2127 85.0095 56.6374 92.771C56.5351 94.15 55.4078 95.2591 54.0252 95.2431L37.6324 95.054Z" fill="#2DDB81"/>
<path d="M82.0166 86.6667V73.1244H82.8842V86.6667H82.0166ZM84.5188 77.4569C84.4694 76.9949 84.2613 76.6352 83.8946 76.3777C83.5313 76.1203 83.0587 75.9916 82.4768 75.9916C82.0677 75.9916 81.7168 76.0533 81.4241 76.1767C81.1314 76.3002 80.9075 76.4677 80.7523 76.6793C80.5971 76.8909 80.5178 77.1324 80.5143 77.404C80.5143 77.6297 80.5654 77.8254 80.6677 77.9912C80.7735 78.1569 80.9163 78.298 81.0962 78.4144C81.276 78.5272 81.4753 78.6225 81.6939 78.7C81.9126 78.7776 82.133 78.8429 82.3552 78.8958L83.3708 79.1497C83.7799 79.2449 84.1732 79.3736 84.5505 79.5359C84.9314 79.6981 85.2717 79.9026 85.5715 80.1495C85.8748 80.3964 86.1146 80.6944 86.2909 81.0435C86.4672 81.3926 86.5554 81.8017 86.5554 82.2708C86.5554 82.9056 86.3932 83.4645 86.0687 83.9477C85.7443 84.4273 85.2752 84.8029 84.6616 85.0745C84.0515 85.3425 83.3127 85.4765 82.4451 85.4765C81.6022 85.4765 80.8705 85.346 80.2498 85.085C79.6326 84.8241 79.1494 84.4432 78.8003 83.9424C78.4547 83.4416 78.2678 82.8315 78.2396 82.1121H80.1704C80.1986 82.4894 80.315 82.8033 80.5196 83.0537C80.7241 83.3041 80.9904 83.491 81.3183 83.6144C81.6498 83.7379 82.0201 83.7996 82.4292 83.7996C82.856 83.7996 83.2298 83.7361 83.5507 83.6091C83.8752 83.4786 84.1291 83.2988 84.3125 83.0696C84.4958 82.8368 84.5893 82.5652 84.5928 82.2549C84.5893 81.9728 84.5064 81.74 84.3442 81.5566C84.182 81.3697 83.9545 81.2145 83.6618 81.0911C83.3726 80.9641 83.034 80.8513 82.6461 80.7525L81.4136 80.4351C80.5213 80.2059 79.816 79.8585 79.2976 79.393C78.7827 78.924 78.5252 78.3015 78.5252 77.5257C78.5252 76.8873 78.698 76.3284 79.0436 75.8487C79.3928 75.3691 79.8671 74.9971 80.4667 74.7326C81.0662 74.4645 81.7451 74.3305 82.5033 74.3305C83.2721 74.3305 83.9457 74.4645 84.5241 74.7326C85.106 74.9971 85.5627 75.3656 85.8942 75.8382C86.2257 76.3072 86.3967 76.8468 86.4073 77.4569H84.5188ZM91.6678 85.4606C90.9625 85.4606 90.3312 85.3284 89.774 85.0639C89.2168 84.7958 88.7742 84.4291 88.4462 83.9636C88.1217 83.498 87.9489 82.9655 87.9278 82.366H89.8322C89.8674 82.8103 90.0596 83.1736 90.4088 83.4557C90.7579 83.7343 91.1776 83.8736 91.6678 83.8736C92.0522 83.8736 92.3943 83.7855 92.694 83.6091C92.9938 83.4328 93.2301 83.1877 93.4029 82.8738C93.5757 82.56 93.6603 82.202 93.6568 81.8C93.6603 81.3909 93.5739 81.0276 93.3976 80.7102C93.2213 80.3928 92.9797 80.1442 92.6729 79.9643C92.3661 79.781 92.0134 79.6893 91.6149 79.6893C91.2904 79.6857 90.9713 79.7457 90.6574 79.8691C90.3435 79.9926 90.0949 80.1548 89.9115 80.3558L88.1394 80.0649L88.7054 74.4786H94.9899V76.1185H90.3294L90.0173 78.991H90.0808C90.2818 78.7547 90.5657 78.559 90.9325 78.4038C91.2993 78.2451 91.7013 78.1658 92.1386 78.1658C92.7946 78.1658 93.38 78.3209 93.8949 78.6313C94.4098 78.9381 94.8153 79.3613 95.1116 79.9009C95.4078 80.4404 95.5559 81.0576 95.5559 81.7524C95.5559 82.4683 95.3902 83.1066 95.0587 83.6673C94.7307 84.2245 94.274 84.6636 93.6886 84.9845C93.1067 85.3019 92.4331 85.4606 91.6678 85.4606ZM96.8344 83.3023V81.7418L101.431 74.4786H102.733V76.7004H101.939L98.8446 81.6042V81.6889H105.261V83.3023H96.8344ZM102.003 85.3125V82.8262L102.024 82.1279V74.4786H103.875V85.3125H102.003ZM107.05 85.3125L111.658 76.1926V76.1185H106.31V74.4786H113.689V76.1556L109.087 85.3125H107.05ZM118.833 85.4606C118.315 85.4571 117.809 85.3672 117.315 85.1908C116.821 85.011 116.377 84.72 115.982 84.318C115.587 83.9124 115.273 83.3746 115.04 82.7045C114.808 82.031 114.693 81.1969 114.697 80.2024C114.697 79.2749 114.795 78.4479 114.993 77.7214C115.19 76.9949 115.474 76.3813 115.844 75.8805C116.215 75.3762 116.661 74.9918 117.183 74.7273C117.708 74.4628 118.295 74.3305 118.944 74.3305C119.625 74.3305 120.228 74.4645 120.754 74.7326C121.283 75.0006 121.709 75.3674 122.034 75.8329C122.358 76.2949 122.559 76.8168 122.637 77.3987H120.706C120.607 76.9826 120.404 76.6511 120.098 76.4042C119.794 76.1538 119.41 76.0286 118.944 76.0286C118.193 76.0286 117.615 76.3548 117.209 77.0072C116.807 77.6597 116.604 78.5554 116.601 79.6946H116.675C116.848 79.3842 117.072 79.1179 117.347 78.8958C117.622 78.6736 117.932 78.5025 118.278 78.3826C118.627 78.2592 118.996 78.1975 119.383 78.1975C120.018 78.1975 120.588 78.3491 121.092 78.6524C121.6 78.9557 122.002 79.3736 122.298 79.9062C122.594 80.4351 122.741 81.0417 122.737 81.7259C122.741 82.4383 122.579 83.0784 122.251 83.6462C121.923 84.2104 121.466 84.6548 120.881 84.9792C120.295 85.3037 119.613 85.4641 118.833 85.4606ZM118.823 83.8736C119.207 83.8736 119.551 83.7802 119.854 83.5933C120.158 83.4063 120.397 83.1542 120.574 82.8368C120.75 82.5194 120.836 82.1632 120.833 81.7682C120.836 81.3803 120.752 81.0294 120.579 80.7155C120.41 80.4016 120.175 80.153 119.875 79.9696C119.576 79.7862 119.234 79.6946 118.849 79.6946C118.564 79.6946 118.297 79.7492 118.05 79.8585C117.804 79.9679 117.588 80.1195 117.405 80.3135C117.222 80.5039 117.077 80.7261 116.971 80.98C116.869 81.2304 116.816 81.4984 116.813 81.7841C116.816 82.1614 116.904 82.5088 117.077 82.8262C117.25 83.1436 117.488 83.3975 117.791 83.588C118.094 83.7784 118.438 83.8736 118.823 83.8736Z" fill="white"/>
<path d="M77.3603 97.8693C77.3363 97.6669 77.2391 97.5098 77.0687 97.3979C76.8982 97.286 76.6891 97.2301 76.4414 97.2301C76.2603 97.2301 76.1019 97.2594 75.966 97.318C75.8315 97.3766 75.7263 97.4572 75.6504 97.5597C75.5759 97.6622 75.5386 97.7788 75.5386 97.9093C75.5386 98.0185 75.5645 98.1123 75.6165 98.1909C75.6697 98.2682 75.7376 98.3327 75.8202 98.3847C75.9028 98.4353 75.9893 98.4772 76.0799 98.5105C76.1704 98.5425 76.2537 98.5684 76.3296 98.5884L76.7451 98.7003C76.8516 98.7282 76.9701 98.7669 77.1006 98.8161C77.2325 98.8654 77.3583 98.9327 77.4781 99.0179C77.5993 99.1018 77.6992 99.2097 77.7778 99.3415C77.8563 99.4733 77.8956 99.6351 77.8956 99.8269C77.8956 100.048 77.8377 100.248 77.7218 100.426C77.6073 100.605 77.4395 100.746 77.2185 100.852C76.9987 100.957 76.7317 101.009 76.4175 101.009C76.1245 101.009 75.8708 100.962 75.6564 100.868C75.4433 100.773 75.2756 100.641 75.153 100.472C75.0319 100.303 74.9633 100.107 74.9473 99.8828H75.4587C75.472 100.037 75.5239 100.165 75.6145 100.266C75.7064 100.366 75.8222 100.441 75.962 100.49C76.1032 100.538 76.255 100.562 76.4175 100.562C76.6066 100.562 76.7764 100.531 76.9268 100.47C77.0773 100.407 77.1965 100.321 77.2844 100.21C77.3723 100.099 77.4162 99.968 77.4162 99.8189C77.4162 99.6831 77.3783 99.5725 77.3024 99.4873C77.2265 99.4021 77.1266 99.3328 77.0027 99.2796C76.8789 99.2263 76.7451 99.1797 76.6012 99.1397L76.0979 98.9959C75.7783 98.904 75.5252 98.7729 75.3388 98.6024C75.1524 98.432 75.0592 98.2089 75.0592 97.9332C75.0592 97.7042 75.1211 97.5044 75.2449 97.334C75.3701 97.1622 75.5379 97.029 75.7483 96.9345C75.96 96.8386 76.1964 96.7907 76.4574 96.7907C76.7211 96.7907 76.9555 96.8379 77.1605 96.9325C77.3656 97.0257 77.5281 97.1535 77.6479 97.316C77.7691 97.4785 77.833 97.6629 77.8397 97.8693H77.3603ZM78.5337 102.088V97.8693H78.9891V98.3567H79.0451C79.0797 98.3034 79.1276 98.2355 79.1889 98.153C79.2515 98.0691 79.3407 97.9945 79.4565 97.9292C79.5737 97.8627 79.7322 97.8294 79.932 97.8294C80.1903 97.8294 80.418 97.894 80.6151 98.0231C80.8122 98.1523 80.966 98.3354 81.0765 98.5724C81.1871 98.8095 81.2423 99.0891 81.2423 99.4114C81.2423 99.7363 81.1871 100.018 81.0765 100.256C80.966 100.493 80.8129 100.677 80.6171 100.808C80.4213 100.937 80.1956 101.001 79.9399 101.001C79.7429 101.001 79.5851 100.969 79.4665 100.904C79.348 100.837 79.2568 100.762 79.1929 100.678C79.129 100.593 79.0797 100.522 79.0451 100.466H79.0051V102.088H78.5337ZM78.9971 99.4034C78.9971 99.6351 79.0311 99.8395 79.099 100.017C79.1669 100.192 79.2661 100.33 79.3966 100.43C79.5271 100.529 79.6869 100.578 79.876 100.578C80.0731 100.578 80.2376 100.526 80.3694 100.422C80.5026 100.317 80.6025 100.176 80.669 99.9987C80.737 99.8202 80.7709 99.6218 80.7709 99.4034C80.7709 99.1877 80.7376 98.9933 80.671 98.8201C80.6058 98.6457 80.5066 98.5079 80.3734 98.4066C80.2416 98.3041 80.0758 98.2528 79.876 98.2528C79.6843 98.2528 79.5231 98.3014 79.3926 98.3987C79.2621 98.4945 79.1636 98.629 79.097 98.8022C79.0304 98.9739 78.9971 99.1744 78.9971 99.4034ZM83.1353 101.001C82.8397 101.001 82.5847 100.936 82.3703 100.806C82.1572 100.674 81.9928 100.49 81.8769 100.254C81.7624 100.017 81.7051 99.7417 81.7051 99.4274C81.7051 99.1131 81.7624 98.8361 81.8769 98.5964C81.9928 98.3554 82.1539 98.1676 82.3603 98.0331C82.568 97.8973 82.8104 97.8294 83.0874 97.8294C83.2472 97.8294 83.405 97.856 83.5608 97.9093C83.7166 97.9625 83.8584 98.0491 83.9863 98.1689C84.1141 98.2875 84.216 98.4446 84.2919 98.6404C84.3678 98.8361 84.4057 99.0771 84.4057 99.3635V99.5632H82.0407V99.1557H83.9263C83.9263 98.9826 83.8917 98.8281 83.8225 98.6923C83.7546 98.5565 83.6573 98.4493 83.5308 98.3707C83.4057 98.2921 83.2578 98.2528 83.0874 98.2528C82.8996 98.2528 82.7372 98.2994 82.6 98.3927C82.4642 98.4846 82.3596 98.6044 82.2864 98.7522C82.2131 98.9 82.1765 99.0585 82.1765 99.2276V99.4993C82.1765 99.731 82.2165 99.9274 82.2964 100.089C82.3776 100.248 82.4901 100.37 82.634 100.454C82.7778 100.537 82.9449 100.578 83.1353 100.578C83.2592 100.578 83.371 100.561 83.4709 100.526C83.5721 100.49 83.6593 100.437 83.7326 100.366C83.8058 100.294 83.8624 100.205 83.9024 100.099L84.3578 100.226C84.3099 100.381 84.2293 100.517 84.1161 100.634C84.0029 100.75 83.8631 100.84 83.6966 100.906C83.5302 100.969 83.3431 101.001 83.1353 101.001ZM85.4818 99.0918V100.938H85.0104V97.8693H85.4658V98.3487H85.5057C85.5777 98.1929 85.6868 98.0677 85.8333 97.9732C85.9798 97.8773 86.1689 97.8294 86.4006 97.8294C86.6084 97.8294 86.7901 97.872 86.9459 97.9572C87.1018 98.0411 87.2229 98.1689 87.3095 98.3407C87.3961 98.5112 87.4393 98.7269 87.4393 98.9879V100.938H86.9679V99.0199C86.9679 98.7789 86.9053 98.5911 86.7802 98.4566C86.655 98.3208 86.4832 98.2528 86.2648 98.2528C86.1143 98.2528 85.9798 98.2855 85.8613 98.3507C85.7441 98.416 85.6516 98.5112 85.5836 98.6364C85.5157 98.7615 85.4818 98.9134 85.4818 99.0918ZM89.3468 101.001C89.0911 101.001 88.8654 100.937 88.6697 100.808C88.4739 100.677 88.3208 100.493 88.2102 100.256C88.0997 100.018 88.0444 99.7363 88.0444 99.4114C88.0444 99.0891 88.0997 98.8095 88.2102 98.5724C88.3208 98.3354 88.4746 98.1523 88.6717 98.0231C88.8687 97.894 89.0965 97.8294 89.3548 97.8294C89.5546 97.8294 89.7124 97.8627 89.8282 97.9292C89.9454 97.9945 90.0346 98.0691 90.0959 98.153C90.1585 98.2355 90.2071 98.3034 90.2417 98.3567H90.2817V96.8466H90.7531V100.938H90.2976V100.466H90.2417C90.2071 100.522 90.1578 100.593 90.0939 100.678C90.03 100.762 89.9388 100.837 89.8202 100.904C89.7017 100.969 89.5439 101.001 89.3468 101.001ZM89.4107 100.578C89.5998 100.578 89.7596 100.529 89.8901 100.43C90.0206 100.33 90.1199 100.192 90.1878 100.017C90.2557 99.8395 90.2896 99.6351 90.2896 99.4034C90.2896 99.1744 90.2564 98.9739 90.1898 98.8022C90.1232 98.629 90.0246 98.4945 89.8941 98.3987C89.7636 98.3014 89.6025 98.2528 89.4107 98.2528C89.211 98.2528 89.0445 98.3041 88.9114 98.4066C88.7795 98.5079 88.6803 98.6457 88.6137 98.8201C88.5485 98.9933 88.5159 99.1877 88.5159 99.4034C88.5159 99.6218 88.5491 99.8202 88.6157 99.9987C88.6836 100.176 88.7835 100.317 88.9154 100.422C89.0485 100.526 89.2137 100.578 89.4107 100.578ZM91.5694 100.938V97.8693H92.0408V100.938H91.5694ZM91.8091 97.358C91.7172 97.358 91.638 97.3267 91.5714 97.2641C91.5062 97.2015 91.4735 97.1262 91.4735 97.0384C91.4735 96.9505 91.5062 96.8752 91.5714 96.8126C91.638 96.75 91.7172 96.7188 91.8091 96.7188C91.901 96.7188 91.9796 96.75 92.0448 96.8126C92.1114 96.8752 92.1447 96.9505 92.1447 97.0384C92.1447 97.1262 92.1114 97.2015 92.0448 97.2641C91.9796 97.3267 91.901 97.358 91.8091 97.358ZM93.2632 99.0918V100.938H92.7918V97.8693H93.2472V98.3487H93.2871C93.359 98.1929 93.4682 98.0677 93.6147 97.9732C93.7612 97.8773 93.9503 97.8294 94.182 97.8294C94.3898 97.8294 94.5715 97.872 94.7273 97.9572C94.8832 98.0411 95.0043 98.1689 95.0909 98.3407C95.1775 98.5112 95.2207 98.7269 95.2207 98.9879V100.938H94.7493V99.0199C94.7493 98.7789 94.6867 98.5911 94.5616 98.4566C94.4364 98.3208 94.2646 98.2528 94.0462 98.2528C93.8957 98.2528 93.7612 98.2855 93.6427 98.3507C93.5255 98.416 93.433 98.5112 93.365 98.6364C93.2971 98.7615 93.2632 98.9134 93.2632 99.0918ZM97.2081 102.152C96.9804 102.152 96.7846 102.123 96.6208 102.064C96.4571 102.007 96.3206 101.931 96.2114 101.836C96.1035 101.743 96.0176 101.643 95.9537 101.537L96.3292 101.273C96.3718 101.329 96.4258 101.393 96.491 101.465C96.5563 101.538 96.6455 101.601 96.7587 101.655C96.8732 101.709 97.023 101.737 97.2081 101.737C97.4558 101.737 97.6602 101.677 97.8214 101.557C97.9825 101.437 98.0631 101.249 98.0631 100.993V100.37H98.0231C97.9885 100.426 97.9392 100.495 97.8753 100.578C97.8127 100.659 97.7221 100.732 97.6036 100.796C97.4864 100.858 97.328 100.89 97.1282 100.89C96.8805 100.89 96.6581 100.831 96.461 100.714C96.2653 100.597 96.1101 100.426 95.9956 100.202C95.8824 99.9787 95.8258 99.707 95.8258 99.3874C95.8258 99.0732 95.8811 98.7995 95.9916 98.5665C96.1022 98.3321 96.256 98.151 96.4531 98.0231C96.6501 97.894 96.8779 97.8294 97.1362 97.8294C97.336 97.8294 97.4944 97.8627 97.6116 97.9292C97.7301 97.9945 97.8207 98.0691 97.8833 98.153C97.9472 98.2355 97.9965 98.3034 98.0311 98.3567H98.079V97.8693H98.5345V101.025C98.5345 101.289 98.4745 101.503 98.3547 101.669C98.2362 101.835 98.0764 101.957 97.8753 102.034C97.6755 102.113 97.4531 102.152 97.2081 102.152ZM97.1921 100.466C97.3812 100.466 97.541 100.423 97.6715 100.336C97.802 100.25 97.9013 100.125 97.9692 99.9627C98.0371 99.8002 98.071 99.6058 98.071 99.3794C98.071 99.1584 98.0378 98.9633 97.9712 98.7942C97.9046 98.625 97.806 98.4925 97.6755 98.3967C97.545 98.3008 97.3839 98.2528 97.1921 98.2528C96.9924 98.2528 96.8259 98.3034 96.6928 98.4047C96.5609 98.5059 96.4617 98.6417 96.3951 98.8121C96.3299 98.9826 96.2973 99.1717 96.2973 99.3794C96.2973 99.5925 96.3305 99.7809 96.3971 99.9447C96.465 100.107 96.5649 100.235 96.6968 100.328C96.8299 100.42 96.995 100.466 97.1921 100.466ZM100.595 97.286V96.8466H103.663V97.286H102.376V100.938H101.881V97.286H100.595ZM104.722 99.0918V100.938H104.251V96.8466H104.722V98.3487H104.762C104.834 98.1903 104.942 98.0644 105.086 97.9712C105.231 97.8766 105.424 97.8294 105.665 97.8294C105.874 97.8294 106.057 97.8713 106.214 97.9552C106.372 98.0378 106.493 98.165 106.58 98.3367C106.668 98.5072 106.712 98.7243 106.712 98.9879V100.938H106.24V99.0199C106.24 98.7762 106.177 98.5878 106.051 98.4546C105.926 98.3201 105.752 98.2528 105.529 98.2528C105.375 98.2528 105.236 98.2855 105.114 98.3507C104.993 98.416 104.897 98.5112 104.826 98.6364C104.757 98.7615 104.722 98.9134 104.722 99.0918ZM107.462 100.938V97.8693H107.933V100.938H107.462ZM107.701 97.358C107.61 97.358 107.53 97.3267 107.464 97.2641C107.399 97.2015 107.366 97.1262 107.366 97.0384C107.366 96.9505 107.399 96.8752 107.464 96.8126C107.53 96.75 107.61 96.7188 107.701 96.7188C107.793 96.7188 107.872 96.75 107.937 96.8126C108.004 96.8752 108.037 96.9505 108.037 97.0384C108.037 97.1262 108.004 97.2015 107.937 97.2641C107.872 97.3267 107.793 97.358 107.701 97.358ZM110.857 98.5565L110.434 98.6763C110.407 98.6057 110.368 98.5372 110.316 98.4706C110.266 98.4027 110.196 98.3467 110.108 98.3028C110.02 98.2588 109.908 98.2369 109.771 98.2369C109.583 98.2369 109.427 98.2801 109.301 98.3667C109.178 98.4519 109.116 98.5605 109.116 98.6923C109.116 98.8095 109.158 98.902 109.243 98.9699C109.329 99.0379 109.462 99.0945 109.643 99.1397L110.098 99.2516C110.373 99.3182 110.577 99.4201 110.712 99.5572C110.846 99.693 110.913 99.8682 110.913 100.083C110.913 100.258 110.863 100.415 110.762 100.554C110.662 100.692 110.522 100.802 110.342 100.882C110.162 100.961 109.953 101.001 109.715 101.001C109.402 101.001 109.143 100.934 108.938 100.798C108.733 100.662 108.603 100.463 108.548 100.202L108.996 100.091C109.038 100.256 109.119 100.38 109.237 100.462C109.357 100.545 109.514 100.586 109.707 100.586C109.927 100.586 110.101 100.539 110.23 100.446C110.361 100.352 110.426 100.238 110.426 100.107C110.426 100 110.389 99.9108 110.314 99.8389C110.24 99.7656 110.125 99.711 109.971 99.6751L109.459 99.5552C109.178 99.4886 108.972 99.3854 108.84 99.2456C108.709 99.1044 108.644 98.928 108.644 98.7163C108.644 98.5431 108.693 98.39 108.79 98.2568C108.889 98.1237 109.022 98.0191 109.192 97.9432C109.362 97.8673 109.555 97.8294 109.771 97.8294C110.074 97.8294 110.313 97.896 110.486 98.0291C110.66 98.1623 110.784 98.3381 110.857 98.5565ZM113.787 100.938L112.668 96.8466H113.172L114.027 100.178H114.067L114.938 96.8466H115.497L116.368 100.178H116.408L117.263 96.8466H117.766L116.647 100.938H116.136L115.233 97.6776H115.201L114.298 100.938H113.787ZM119.208 101.001C118.912 101.001 118.657 100.936 118.443 100.806C118.23 100.674 118.065 100.49 117.949 100.254C117.835 100.017 117.777 99.7417 117.777 99.4274C117.777 99.1131 117.835 98.8361 117.949 98.5964C118.065 98.3554 118.226 98.1676 118.433 98.0331C118.64 97.8973 118.883 97.8294 119.16 97.8294C119.319 97.8294 119.477 97.856 119.633 97.9093C119.789 97.9625 119.931 98.0491 120.059 98.1689C120.186 98.2875 120.288 98.4446 120.364 98.6404C120.44 98.8361 120.478 99.0771 120.478 99.3635V99.5632H118.113V99.1557H119.999C119.999 98.9826 119.964 98.8281 119.895 98.6923C119.827 98.5565 119.73 98.4493 119.603 98.3707C119.478 98.2921 119.33 98.2528 119.16 98.2528C118.972 98.2528 118.809 98.2994 118.672 98.3927C118.536 98.4846 118.432 98.6044 118.359 98.7522C118.285 98.9 118.249 99.0585 118.249 99.2276V99.4993C118.249 99.731 118.289 99.9274 118.369 100.089C118.45 100.248 118.562 100.37 118.706 100.454C118.85 100.537 119.017 100.578 119.208 100.578C119.331 100.578 119.443 100.561 119.543 100.526C119.644 100.49 119.732 100.437 119.805 100.366C119.878 100.294 119.935 100.205 119.975 100.099L120.43 100.226C120.382 100.381 120.302 100.517 120.188 100.634C120.075 100.75 119.935 100.84 119.769 100.906C119.602 100.969 119.415 101.001 119.208 101.001ZM122.369 101.001C122.073 101.001 121.818 100.936 121.604 100.806C121.391 100.674 121.226 100.49 121.111 100.254C120.996 100.017 120.939 99.7417 120.939 99.4274C120.939 99.1131 120.996 98.8361 121.111 98.5964C121.226 98.3554 121.388 98.1676 121.594 98.0331C121.802 97.8973 122.044 97.8294 122.321 97.8294C122.481 97.8294 122.639 97.856 122.795 97.9093C122.95 97.9625 123.092 98.0491 123.22 98.1689C123.348 98.2875 123.45 98.4446 123.526 98.6404C123.602 98.8361 123.639 99.0771 123.639 99.3635V99.5632H121.274V99.1557H123.16C123.16 98.9826 123.125 98.8281 123.056 98.6923C122.988 98.5565 122.891 98.4493 122.765 98.3707C122.639 98.2921 122.492 98.2528 122.321 98.2528C122.133 98.2528 121.971 98.2994 121.834 98.3927C121.698 98.4846 121.593 98.6044 121.52 98.7522C121.447 98.9 121.41 99.0585 121.41 99.2276V99.4993C121.41 99.731 121.45 99.9274 121.53 100.089C121.611 100.248 121.724 100.37 121.868 100.454C122.011 100.537 122.179 100.578 122.369 100.578C122.493 100.578 122.605 100.561 122.705 100.526C122.806 100.49 122.893 100.437 122.966 100.366C123.04 100.294 123.096 100.205 123.136 100.099L123.592 100.226C123.544 100.381 123.463 100.517 123.35 100.634C123.237 100.75 123.097 100.84 122.93 100.906C122.764 100.969 122.577 101.001 122.369 101.001ZM124.684 99.8189L124.676 99.2356H124.771L126.114 97.8693H126.697L125.267 99.3155H125.227L124.684 99.8189ZM124.244 100.938V96.8466H124.715V100.938H124.244ZM126.194 100.938L124.995 99.4194L125.331 99.0918L126.793 100.938H126.194Z" fill="#A1A1A1"/>
</svg>
